<svg id="visual" viewBox="0 0 900 600" width="900" height="600" xmlns="http://www.w3.org/2000/svg" xmlns:xlink="http://www.w3.org/1999/xlink" version="1.1"><path d="M0 141L8.3 127.5C16.7 114 33.3 87 50 80C66.7 73 83.3 86 100 87.8C116.7 89.7 133.3 80.3 150 91.2C166.7 102 183.3 133 200 133.7C216.7 134.3 233.3 104.7 250 101.7C266.7 98.7 283.3 122.3 300 130.5C316.7 138.7 333.3 131.3 350 121.5C366.7 111.7 383.3 99.3 400 99.2C416.7 99 433.3 111 450 111.3C466.7 111.7 483.3 100.3 500 105.3C516.7 110.3 533.3 131.7 550 137.2C566.7 142.7 583.3 132.3 600 131.3C616.7 130.3 633.3 138.7 650 135.5C666.7 132.3 683.3 117.7 700 106.8C716.7 96 733.3 89 750 98.5C766.7 108 783.3 134 800 138.2C816.7 142.3 833.3 124.7 850 114.2C866.7 103.7 883.3 100.3 891.7 98.7L900 97L900 0L891.7 0C883.3 0 866.7 0 850 0C833.3 0 816.7 0 800 0C783.3 0 766.7 0 750 0C733.3 0 716.7 0 700 0C683.3 0 666.7 0 650 0C633.3 0 616.7 0 600 0C583.3 0 566.7 0 550 0C533.3 0 516.7 0 500 0C483.3 0 466.7 0 450 0C433.3 0 416.7 0 400 0C383.3 0 366.7 0 350 0C333.3 0 316.7 0 300 0C283.3 0 266.7 0 250 0C233.3 0 216.7 0 200 0C183.3 0 166.7 0 150 0C133.3 0 116.7 0 100 0C83.3 0 66.7 0 50 0C33.3 0 16.7 0 8.3 0L0 0Z" fill="#E7F8CC" stroke-linecap="round" stroke-linejoin="miter"></path></svg>