<!DOCTYPE svg PUBLIC "-//W3C//DTD SVG 1.1//EN" "http://www.w3.org/Graphics/SVG/1.1/DTD/svg11.dtd">
<!-- Uploaded to: SVG Repo, www.svgrepo.com, Transformed by: SVG Repo Mixer Tools -->
<svg width="800px" height="800px" viewBox="0 -10.05 49.038 49.038" xmlns="http://www.w3.org/2000/svg" fill="#000000">
<g id="SVGRepo_bgCarrier" stroke-width="0"/>
<g id="SVGRepo_tracerCarrier" stroke-linecap="round" stroke-linejoin="round"/>
<g id="SVGRepo_iconCarrier"> <g id="Group_28" data-name="Group 28" transform="translate(-277.389 -210.877)"> <path id="Path_60" data-name="Path 60" d="M282.711,220.153c2.908-5.047,10.4-8.276,19.181-8.276s16.266,3.226,19.176,8.27l-.008,0a4.7,4.7,0,1,1-5.04,4.692,4.7,4.7,0,1,1-9.408,0,4.7,4.7,0,1,1-9.408,0,4.7,4.7,0,1,1-9.407,0,4.7,4.7,0,1,1-5.086-4.688Z" fill="none" stroke="#F472B6" stroke-linecap="round" stroke-linejoin="round" stroke-width="2"/> <line id="Line_14" data-name="Line 14" y2="2.135" transform="translate(301.908 216.075)" fill="none" stroke="#F472B6" stroke-linecap="round" stroke-linejoin="round" stroke-width="2"/> <line id="Line_15" data-name="Line 15" x1="2.546" y2="2.135" transform="translate(293.635 216.075)" fill="none" stroke="#F472B6" stroke-linecap="round" stroke-linejoin="round" stroke-width="2"/> <line id="Line_16" data-name="Line 16" x2="2.546" y2="2.135" transform="translate(307.636 216.075)" fill="none" stroke="#F472B6" stroke-linecap="round" stroke-linejoin="round" stroke-width="2"/> <path id="Path_61" data-name="Path 61" d="M282.677,229.819l2.787,8.287a1,1,0,0,0,.958.713h31.511a1,1,0,0,0,.958-.713l2.786-8.287" fill="none" stroke="#F472B6" stroke-linecap="round" stroke-linejoin="round" stroke-width="2"/> </g> </g>
</svg>