<svg id="visual" viewBox="0 0 900 600" width="900" height="600" xmlns="http://www.w3.org/2000/svg" xmlns:xlink="http://www.w3.org/1999/xlink" version="1.1"><g transform="translate(463.74585796989766 315.6008472143168)"><path d="M191.7 -259.1C243.8 -225.9 278.3 -163.8 283.6 -102.7C288.8 -41.7 264.7 18.2 240.2 73.2C215.7 128.2 190.7 178.2 150.6 204.2C110.5 230.2 55.3 232.3 -8.1 243.5C-71.5 254.7 -143 275 -202.5 255.2C-261.9 235.5 -309.3 175.7 -311.7 114.1C-314.2 52.4 -271.7 -11 -245.3 -75.8C-218.8 -140.5 -208.5 -206.6 -170.3 -244.3C-132.1 -282.1 -66 -291.5 1.9 -294.1C69.8 -296.7 139.5 -292.3 191.7 -259.1" fill="#e7f8cc"></path></g></svg>