<?xml version="1.0" encoding="UTF-8" standalone="no"?>
<!-- Created with Inkscape (http://www.inkscape.org/) -->

<svg
   version="1.1"
   id="svg1"
   width="528.44"
   height="589.67999"
   viewBox="0 0 528.44 589.67999"
   sodipodi:docname="phone-ilustration.eps"
   xmlns:inkscape="http://www.inkscape.org/namespaces/inkscape"
   xmlns:sodipodi="http://sodipodi.sourceforge.net/DTD/sodipodi-0.dtd"
   xmlns="http://www.w3.org/2000/svg"
   xmlns:svg="http://www.w3.org/2000/svg">
  <defs
     id="defs1">
    <linearGradient
       x1="0"
       y1="0"
       x2="1"
       y2="0"
       gradientUnits="userSpaceOnUse"
       gradientTransform="matrix(1453.94,0,0,-1453.94,1543.07,2542.51)"
       spreadMethod="pad"
       id="linearGradient13">
      <stop
         style="stop-opacity:1;stop-color:#eb3c96"
         offset="0"
         id="stop12" />
      <stop
         style="stop-opacity:1;stop-color:#fac7e2"
         offset="1"
         id="stop13" />
    </linearGradient>
    <clipPath
       clipPathUnits="userSpaceOnUse"
       id="clipPath13">
      <path
         d="M 2865.26,920.07 H 1674.81 c -72.75,0 -131.75,59.899 -131.75,133.78 v 77.39 1245.61 c 40.88,-15.77 84.1,-23.65 127.34,-23.65 82.6,0 165.24,28.8 231.51,86.48 h 467.89 v 47.2 h -422.75 c 19.56,24.62 35.37,51.26 47.42,79.14 h 375.33 v 47.19 h -358.81 c 12.04,44.2 15.34,90.28 9.9,135.52 h 348.91 v 47.19 h -357.87 c -7.12,27.28 -17.57,53.88 -31.34,79.15 h 389.21 v 47.19 h -420.08 c -8.6,11.1 -17.96,21.8 -28.07,32.03 -60.82,61.58 -138.65,96.1 -218.57,103.49 h 666.72 v 47.19 h -695.78 c 3.35,8.02 6.73,16.1 10.13,24.27 -22.84,27.02 -45.12,43.22 -66.82,48.6 l -74.27,-123.96 v 977.29 c 0,73.88 59,133.78 131.75,133.78 h 178.06 v -23.25 c 0.03,-60.83 48.59,-110.12 108.49,-110.12 h 605.41 0.04 c 59.9,0 108.45,49.3 108.45,110.12 v 23.25 h 190 c 72.76,0 131.75,-59.9 131.75,-133.78 v -2932.8 -44.52 c 0,-73.881 -58.99,-133.78 -131.75,-133.78 m -237.1,1675.36 c -0.01,-0.04 -0.03,-0.08 -0.05,-0.12 0.02,0.04 0.04,0.08 0.05,0.12 5.94,15.34 30.43,56.48 23.35,70.96 -7.4,-10.67 -13.7,-22.09 -18.8,-34.07 -4.63,-11.77 -0.88,-27.28 -4.55,-36.89"
         id="path13" />
    </clipPath>
    <linearGradient
       x1="0"
       y1="0"
       x2="1"
       y2="0"
       gradientUnits="userSpaceOnUse"
       gradientTransform="matrix(1453.94,0,0,-1453.94,1543.07,2542.51)"
       spreadMethod="pad"
       id="linearGradient20">
      <stop
         style="stop-opacity:1;stop-color:#d03a86"
         offset="0"
         id="stop19" />
      <stop
         style="stop-opacity:1;stop-color:#e0b2c9"
         offset="1"
         id="stop20" />
    </linearGradient>
    <clipPath
       clipPathUnits="userSpaceOnUse"
       id="clipPath20">
      <path
         d="m 2628.11,2595.31 c 0.02,0.04 0.04,0.08 0.05,0.12 -0.01,-0.04 -0.03,-0.08 -0.05,-0.12 m 0.05,0.12 c 3.67,9.61 -0.08,25.12 4.55,36.89 5.1,11.98 11.4,23.4 18.8,34.07 7.08,-14.48 -17.41,-55.62 -23.35,-70.96"
         id="path20" />
    </clipPath>
    <linearGradient
       x1="0"
       y1="0"
       x2="1"
       y2="0"
       gradientUnits="userSpaceOnUse"
       gradientTransform="matrix(252.9,0,0,-252.9,215.166,587.09)"
       spreadMethod="pad"
       id="linearGradient86">
      <stop
         style="stop-opacity:1;stop-color:#193040"
         offset="0"
         id="stop85" />
      <stop
         style="stop-opacity:1;stop-color:#2d385a"
         offset="1"
         id="stop86" />
    </linearGradient>
    <linearGradient
       x1="0"
       y1="0"
       x2="1"
       y2="0"
       gradientUnits="userSpaceOnUse"
       gradientTransform="matrix(341.62,0,0,-341.62,874.93,407.35)"
       spreadMethod="pad"
       id="linearGradient88">
      <stop
         style="stop-opacity:1;stop-color:#193040"
         offset="0"
         id="stop87" />
      <stop
         style="stop-opacity:1;stop-color:#2d385a"
         offset="1"
         id="stop88" />
    </linearGradient>
    <linearGradient
       x1="0"
       y1="0"
       x2="1"
       y2="0"
       gradientUnits="userSpaceOnUse"
       gradientTransform="matrix(1453.94,0,0,-1453.94,1543.07,2542.51)"
       spreadMethod="pad"
       id="linearGradient97">
      <stop
         style="stop-opacity:1;stop-color:#e82784"
         offset="0"
         id="stop96" />
      <stop
         style="stop-opacity:1;stop-color:#ee59a9"
         offset="1"
         id="stop97" />
    </linearGradient>
    <clipPath
       clipPathUnits="userSpaceOnUse"
       id="clipPath97">
      <path
         d="m 1670.4,2353.2 c -43.24,0 -86.46,7.88 -127.34,23.65 v 425.57 c 33.12,73.16 70.16,158.25 111.13,255.36 h 48.89 c 79.92,-7.39 157.75,-41.91 218.57,-103.49 10.11,-10.23 19.47,-20.93 28.07,-32.03 h -305.93 v -47.19 h 336.8 c 13.77,-25.27 24.22,-51.87 31.34,-79.15 h -368.14 v -47.19 h 377.1 c 5.44,-45.24 2.14,-91.32 -9.9,-135.52 h -367.2 v -47.19 h 350.68 c -12.05,-27.88 -27.86,-54.52 -47.42,-79.14 h -303.26 v -47.2 h 258.12 C 1835.64,2382 1753,2353.2 1670.4,2353.2"
         id="path97" />
    </clipPath>
  </defs>
  <sodipodi:namedview
     id="namedview1"
     pagecolor="#ffffff"
     bordercolor="#000000"
     borderopacity="0.25"
     inkscape:showpageshadow="2"
     inkscape:pageopacity="0.0"
     inkscape:pagecheckerboard="0"
     inkscape:deskcolor="#d1d1d1">
    <inkscape:page
       x="0"
       y="0"
       inkscape:label="1"
       id="page1"
       width="528.44"
       height="589.67999"
       margin="0"
       bleed="0" />
  </sodipodi:namedview>
  <g
     id="g1"
     inkscape:groupmode="layer"
     inkscape:label="1">
    <g
       id="group-R5">
      <path
         id="path2"
         d="m 3102.61,184.012 c -148.15,0 -296.35,15.75 -440.36,47.117 -300.05,65.34 -596.24,198.402 -898.02,198.402 -49.43,0 -99.04,-3.57 -148.81,-11.601 C 1465.46,393.75 1327.36,330.191 1182.65,287.262 1046.4,246.84 902.133,225.859 758.371,225.859 c -222.777,0 -444.305,50.391 -632.641,156.879 -29.023,16.41 -57.5698,34.352 -79.523,58.071 -67.539,72.929 -55.94528,186.582 1.8672,266.031 57.8008,79.449 151.8358,131.039 246.3208,173.09 340.925,151.73 722.965,212.11 1101.755,241.31 14.82,1.15 29.64,2.25 44.47,3.3 v -95.67 c 0,-109.319 87.28,-197.952 194.94,-197.952 h 1268.95 c 107.67,0 194.95,88.633 194.95,197.952 v 48.01 c 167.99,-30.35 341.14,-42.36 500.3,-98.868 188.89,-67.071 362.53,-226.364 339.69,-408.321 C 3926.27,464.699 3848.52,372.539 3750.99,314.02 3653.46,255.5 3537.67,226.77 3422.25,208.73 3316.74,192.23 3209.7,184.012 3102.61,184.012"
         style="fill:#fde8f4;fill-opacity:1;fill-rule:nonzero;stroke:none"
         transform="matrix(0.13333333,0,0,-0.13333333,0,589.68)" />
      <path
         id="path3"
         d="m 2019.15,0 c -6.53,0 -13.06,0.0820313 -19.56,0.171875 C 1896.57,1.60938 1793.55,3.03125 1690.52,4.46875 1595.96,5.78125 1500.53,7.25 1408.28,43.0781 c -26.93,10.4532 -58.97,35.0625 -59.85,82.6719 -1.91,102.738 182.91,192.621 231.86,222.961 22.78,14.109 46.26,19.32 70.15,19.32 66.59,0 136.23,-40.543 201.78,-41.91 3.21,-0.07 6.41,-0.101 9.62,-0.101 27.77,0 55.74,2.378 83.69,4.761 27.94,2.391 55.87,4.77 83.59,4.77 45,0 89.44,-6.281 132.49,-29.02 18.24,-9.652 37.02,-23.562 47.87,-50.652 13.43,-33.539 11.17,-79.918 0.96,-116.688 C 2193.22,77.2109 2156.6,36.5313 2118.26,17.8711 2086.17,2.25 2052.6,0 2019.15,0"
         style="fill:#fde8f4;fill-opacity:1;fill-rule:nonzero;stroke:none"
         transform="matrix(0.13333333,0,0,-0.13333333,0,589.68)" />
      <path
         id="path4"
         d="m 3110.81,3062.64 h -11.35 v 414.94 h 11.35 c 6.33,0 11.45,-5.21 11.45,-11.63 v -391.68 c 0,-6.42 -5.12,-11.63 -11.45,-11.63"
         style="fill:#484478;fill-opacity:1;fill-rule:nonzero;stroke:none"
         transform="matrix(0.13333333,0,0,-0.13333333,0,589.68)" />
      <path
         id="path5"
         d="m 1440.62,3666.04 h -4.3 c -6.32,0 -11.45,5.2 -11.45,11.62 v 113.37 c 0,6.42 5.13,11.63 11.45,11.63 h 4.3 v -136.62"
         style="fill:#484478;fill-opacity:1;fill-rule:nonzero;stroke:none"
         transform="matrix(0.13333333,0,0,-0.13333333,0,589.68)" />
      <path
         id="path6"
         d="m 1440.62,3314.76 h -5.3 c -6.33,0 -11.45,5.21 -11.45,11.63 v 214.55 c 0,6.42 5.12,11.63 11.45,11.63 h 5.3 v -237.81"
         style="fill:#484478;fill-opacity:1;fill-rule:nonzero;stroke:none"
         transform="matrix(0.13333333,0,0,-0.13333333,0,589.68)" />
      <path
         id="path7"
         d="m 1440.62,2991.77 h -4.8 c -6.33,0 -11.45,5.2 -11.45,11.62 v 216.59 c 0,6.42 5.12,11.62 11.45,11.62 h 4.8 v -239.83"
         style="fill:#484478;fill-opacity:1;fill-rule:nonzero;stroke:none"
         transform="matrix(0.13333333,0,0,-0.13333333,0,589.68)" />
      <path
         id="path8"
         d="m 3099.46,1076.88 c -31.37,5.66 -62.57,11.97 -93.46,19.33 -3,0.71 -5.99,1.43 -8.99,2.16 v 2932.8 c 0,73.88 -58.99,133.78 -131.75,133.78 h -190 v -23.25 c 0,-60.82 -48.55,-110.12 -108.45,-110.12 h -0.04 -605.41 c -59.9,0 -108.46,49.29 -108.49,110.12 v 23.25 h -178.06 c -72.75,0 -131.75,-59.9 -131.75,-133.78 v -977.29 l -14.51,-24.23 c -31.24,-13.69 -60.91,-32.12 -87.93,-55.3 v 17.42 239.83 83.16 237.81 113.47 136.62 253.54 c 0,109.32 87.28,197.95 194.94,197.95 h 1268.95 c 107.67,0 194.95,-88.63 194.95,-197.95 V 3477.58 3062.64 1076.88 m -696.09,3078.27 c -14.75,0 -26.7,-12.14 -26.7,-27.11 0,-14.97 11.95,-27.11 26.7,-27.11 14.74,0 26.7,12.14 26.7,27.11 0,14.97 -11.96,27.11 -26.7,27.11 m -274.01,-3.25 c -10.68,0 -19.34,-8.8 -19.34,-19.65 v -8.48 c 0,-10.85 8.66,-19.64 19.34,-19.64 h 192.95 c 10.69,0 19.36,8.79 19.36,19.64 v 8.48 c 0,10.85 -8.67,19.65 -19.36,19.65 H 2129.36 M 1440.62,1124.54 v 1313.61 c 31.12,-26.74 65.85,-47.18 102.44,-61.3 V 1131.24 c -34.16,-2.05 -68.3,-4.27 -102.44,-6.7"
         style="fill:#484478;fill-opacity:1;fill-rule:nonzero;stroke:none"
         transform="matrix(0.13333333,0,0,-0.13333333,0,589.68)" />
      <path
         id="path9"
         d="M 2904.51,830.918 H 1635.56 c -107.66,0 -194.94,88.633 -194.94,197.952 v 95.67 c 34.14,2.43 68.28,4.65 102.44,6.7 v -77.39 c 0,-73.881 59,-133.78 131.75,-133.78 h 1190.45 c 72.76,0 131.75,59.899 131.75,133.78 v 44.52 c 3,-0.73 5.99,-1.45 8.99,-2.16 30.89,-7.36 62.09,-13.67 93.46,-19.33 v -48.01 c 0,-109.319 -87.28,-197.952 -194.95,-197.952"
         style="fill:#474176;fill-opacity:1;fill-rule:nonzero;stroke:none"
         transform="matrix(0.13333333,0,0,-0.13333333,0,589.68)" />
      <path
         id="path10"
         d="m 2322.31,4104.13 h -192.95 c -10.68,0 -19.34,8.79 -19.34,19.64 v 8.48 c 0,10.85 8.66,19.65 19.34,19.65 h 192.95 c 10.69,0 19.36,-8.8 19.36,-19.65 v -8.48 c 0,-10.85 -8.67,-19.64 -19.36,-19.64"
         style="fill:#ecedf0;fill-opacity:1;fill-rule:nonzero;stroke:none"
         transform="matrix(0.13333333,0,0,-0.13333333,0,589.68)" />
      <path
         id="path11"
         d="m 2403.37,4100.93 c -14.75,0 -26.7,12.14 -26.7,27.11 0,14.97 11.95,27.11 26.7,27.11 14.74,0 26.7,-12.14 26.7,-27.11 0,-14.97 -11.96,-27.11 -26.7,-27.11"
         style="fill:#ecedf0;fill-opacity:1;fill-rule:nonzero;stroke:none"
         transform="matrix(0.13333333,0,0,-0.13333333,0,589.68)" />
      <path
         id="path12"
         d="M 2865.26,920.07 H 1674.81 c -72.75,0 -131.75,59.899 -131.75,133.78 v 77.39 1245.61 c 40.88,-15.77 84.1,-23.65 127.34,-23.65 82.6,0 165.24,28.8 231.51,86.48 h 467.89 v 47.2 h -422.75 c 19.56,24.62 35.37,51.26 47.42,79.14 h 375.33 v 47.19 h -358.81 c 12.04,44.2 15.34,90.28 9.9,135.52 h 348.91 v 47.19 h -357.87 c -7.12,27.28 -17.57,53.88 -31.34,79.15 h 389.21 v 47.19 h -420.08 c -8.6,11.1 -17.96,21.8 -28.07,32.03 -60.82,61.58 -138.65,96.1 -218.57,103.49 h 666.72 v 47.19 h -695.78 c 3.35,8.02 6.73,16.1 10.13,24.27 -22.84,27.02 -45.12,43.22 -66.82,48.6 l -74.27,-123.96 v 977.29 c 0,73.88 59,133.78 131.75,133.78 h 178.06 v -23.25 c 0.03,-60.83 48.59,-110.12 108.49,-110.12 h 605.41 0.04 c 59.9,0 108.45,49.3 108.45,110.12 v 23.25 h 190 c 72.76,0 131.75,-59.9 131.75,-133.78 v -2932.8 -44.52 c 0,-73.881 -58.99,-133.78 -131.75,-133.78 m -237.1,1675.36 c -0.01,-0.04 -0.03,-0.08 -0.05,-0.12 0.02,0.04 0.04,0.08 0.05,0.12 5.94,15.34 30.43,56.48 23.35,70.96 -7.4,-10.67 -13.7,-22.09 -18.8,-34.07 -4.63,-11.77 -0.88,-27.28 -4.55,-36.89"
         style="fill:url(#linearGradient13);fill-opacity:1;fill-rule:nonzero;stroke:none"
         transform="matrix(0.13333333,0,0,-0.13333333,0,589.68)"
         clip-path="url(#clipPath13)" />
      <path
         id="path14"
         d="M 1543.06,3886.74 H 2997.01 V 3750.37 H 1543.06 v 136.37"
         style="fill:#e9eaee;fill-opacity:1;fill-rule:nonzero;stroke:none"
         transform="matrix(0.13333333,0,0,-0.13333333,0,589.68)" />
      <path
         id="path15"
         d="m 1589.07,3858.36 h 123.14 v -11.37 h -123.14 v 11.37"
         style="fill:#353366;fill-opacity:1;fill-rule:nonzero;stroke:none"
         transform="matrix(0.13333333,0,0,-0.13333333,0,589.68)" />
      <path
         id="path16"
         d="m 1589.07,3824.24 h 123.14 v -11.37 h -123.14 v 11.37"
         style="fill:#353366;fill-opacity:1;fill-rule:nonzero;stroke:none"
         transform="matrix(0.13333333,0,0,-0.13333333,0,589.68)" />
      <path
         id="path17"
         d="m 1589.07,3790.12 h 123.14 v -11.37 h -123.14 v 11.37"
         style="fill:#353366;fill-opacity:1;fill-rule:nonzero;stroke:none"
         transform="matrix(0.13333333,0,0,-0.13333333,0,589.68)" />
      <path
         id="path18"
         d="m 2866.96,3805.41 c -14.31,-0.06 -25.95,11.67 -26,26.19 -0.05,14.53 11.5,26.35 25.81,26.4 14.29,0.05 25.93,-11.67 25.99,-26.2 v -0.1 c 0.08,-14.43 -11.38,-26.21 -25.59,-26.29 z m 34.41,0 h -4.56 l -1.74,1.41 c 5.73,6.99 8.88,15.79 8.89,24.88 -0.13,20.86 -16.9,37.66 -37.45,37.52 -20.55,-0.14 -37.09,-17.17 -36.94,-38.02 0.13,-20.84 16.86,-37.64 37.39,-37.52 8.93,0.05 17.56,3.27 24.41,9.09 l 1.69,-1.48 v -4.67 l 28.71,-29.24 8.59,8.78 -28.99,29.25"
         style="fill:#353366;fill-opacity:1;fill-rule:nonzero;stroke:none"
         transform="matrix(0.13333333,0,0,-0.13333333,0,589.68)" />
      <path
         id="path19"
         d="m 2628.11,2595.31 c 0.02,0.04 0.04,0.08 0.05,0.12 -0.01,-0.04 -0.03,-0.08 -0.05,-0.12 m 0.05,0.12 c 3.67,9.61 -0.08,25.12 4.55,36.89 5.1,11.98 11.4,23.4 18.8,34.07 7.08,-14.48 -17.41,-55.62 -23.35,-70.96"
         style="fill:url(#linearGradient20);fill-opacity:1;fill-rule:nonzero;stroke:none"
         transform="matrix(0.13333333,0,0,-0.13333333,0,589.68)"
         clip-path="url(#clipPath20)" />
      <path
         id="path21"
         d="m 2564.55,3540.35 c 47.19,0 85.45,-38.85 85.45,-86.76 0,-47.92 -38.26,-86.77 -85.45,-86.77 -47.19,0 -85.45,38.85 -85.45,86.77 0,47.91 38.26,86.76 85.45,86.76"
         style="fill:#e9eaee;fill-opacity:1;fill-rule:nonzero;stroke:none"
         transform="matrix(0.13333333,0,0,-0.13333333,0,589.68)" />
      <path
         id="path22"
         d="m 2810.85,3540.35 c -47.2,0 -85.45,-38.85 -85.45,-86.76 0,-47.92 38.25,-86.77 85.45,-86.77 47.18,0 85.45,38.85 85.45,86.77 0,47.91 -38.27,86.76 -85.45,86.76"
         style="fill:#e9eaee;fill-opacity:1;fill-rule:nonzero;stroke:none"
         transform="matrix(0.13333333,0,0,-0.13333333,0,589.68)" />
      <path
         id="path23"
         d="m 1643.79,3540.35 h 726.01 v -47.19 h -726.01 v 47.19"
         style="fill:#e9eaee;fill-opacity:1;fill-rule:nonzero;stroke:none"
         transform="matrix(0.13333333,0,0,-0.13333333,0,589.68)" />
      <path
         id="path24"
         d="m 1643.79,3414.01 h 726.01 v -47.19 h -726.01 v 47.19"
         style="fill:#e9eaee;fill-opacity:1;fill-rule:nonzero;stroke:none"
         transform="matrix(0.13333333,0,0,-0.13333333,0,589.68)" />
      <path
         id="path25"
         d="m 2549.35,3493.29 c 10.37,-13.48 -4.45,-24.01 -4.45,-24.01 -6.85,-8.8 10.78,-25.32 10.78,-25.32 0,0 17.3,-16.86 25.54,-9.39 0,0 9.46,15.66 23.33,5.96 13.87,-9.69 12.44,-22.84 -0.09,-33.31 0,0 -17.79,-14.04 -59.56,25.88 -41.22,41.54 -28.3,58.08 -28.3,58.08 9.54,13.34 22.38,15.57 32.75,2.11"
         style="fill:#e41a76;fill-opacity:1;fill-rule:nonzero;stroke:none"
         transform="matrix(0.13333333,0,0,-0.13333333,0,589.68)" />
      <path
         id="path26"
         d="m 2777.96,3412.74 h -6.58 l 4.65,4.65 c 2.51,2.5 4.08,5.76 4.5,9.3 -10.74,7.04 -16.08,17.25 -16.08,27.95 0,19.74 18.14,39.79 46.55,39.79 30.1,0 46.24,-18.45 46.24,-38.06 0,-19.74 -16.31,-38.19 -46.24,-38.19 -5.24,0 -10.71,0.7 -15.59,1.99 -4.63,-4.75 -10.89,-7.43 -17.45,-7.43"
         style="fill:#e41a76;fill-opacity:1;fill-rule:nonzero;stroke:none"
         transform="matrix(0.13333333,0,0,-0.13333333,0,589.68)" />
      <path
         id="path27"
         d="m 2564.55,3231.3 c 47.19,0 85.45,-38.84 85.45,-86.76 0,-47.92 -38.26,-86.76 -85.45,-86.76 -47.19,0 -85.45,38.84 -85.45,86.76 0,47.92 38.26,86.76 85.45,86.76"
         style="fill:#e9eaee;fill-opacity:1;fill-rule:nonzero;stroke:none"
         transform="matrix(0.13333333,0,0,-0.13333333,0,589.68)" />
      <path
         id="path28"
         d="m 2810.85,3231.3 c -47.2,0 -85.45,-38.84 -85.45,-86.76 0,-47.92 38.25,-86.76 85.45,-86.76 47.18,0 85.45,38.84 85.45,86.76 0,47.92 -38.27,86.76 -85.45,86.76"
         style="fill:#e9eaee;fill-opacity:1;fill-rule:nonzero;stroke:none"
         transform="matrix(0.13333333,0,0,-0.13333333,0,589.68)" />
      <path
         id="path29"
         d="m 1643.79,3231.3 h 726.01 v -47.19 h -726.01 v 47.19"
         style="fill:#e9eaee;fill-opacity:1;fill-rule:nonzero;stroke:none"
         transform="matrix(0.13333333,0,0,-0.13333333,0,589.68)" />
      <path
         id="path30"
         d="m 1643.79,3057.78 h 726.012 v 47.1875 H 1643.79 Z"
         style="fill:#e9eaee;fill-opacity:1;fill-rule:nonzero;stroke:none"
         transform="matrix(0.13333333,0,0,-0.13333333,0,589.68)" />
      <path
         id="path31"
         d="m 2549.35,3184.24 c 10.37,-13.47 -4.45,-24 -4.45,-24 -6.85,-8.81 10.78,-25.32 10.78,-25.32 0,0 17.3,-16.87 25.54,-9.4 0,0 9.46,15.67 23.33,5.97 13.87,-9.7 12.44,-22.85 -0.09,-33.32 0,0 -17.79,-14.03 -59.56,25.89 -41.22,41.54 -28.3,58.08 -28.3,58.08 9.54,13.33 22.38,15.57 32.75,2.1"
         style="fill:#e41a76;fill-opacity:1;fill-rule:nonzero;stroke:none"
         transform="matrix(0.13333333,0,0,-0.13333333,0,589.68)" />
      <path
         id="path32"
         d="m 2777.96,3103.69 h -6.58 l 4.65,4.65 c 2.51,2.51 4.08,5.77 4.5,9.31 -10.74,7.04 -16.08,17.24 -16.08,27.95 0,19.73 18.14,39.79 46.55,39.79 30.1,0 46.24,-18.46 46.24,-38.07 0,-19.74 -16.31,-38.18 -46.24,-38.18 -5.24,0 -10.71,0.7 -15.59,1.98 -4.63,-4.74 -10.89,-7.43 -17.45,-7.43"
         style="fill:#e41a76;fill-opacity:1;fill-rule:nonzero;stroke:none"
         transform="matrix(0.13333333,0,0,-0.13333333,0,589.68)" />
      <path
         id="path33"
         d="m 2564.55,2922.26 c 47.19,0 85.45,-38.85 85.45,-86.76 0,-47.92 -38.26,-86.77 -85.45,-86.77 -47.19,0 -85.45,38.85 -85.45,86.77 0,47.91 38.26,86.76 85.45,86.76"
         style="fill:#e9eaee;fill-opacity:1;fill-rule:nonzero;stroke:none"
         transform="matrix(0.13333333,0,0,-0.13333333,0,589.68)" />
      <path
         id="path34"
         d="m 2810.85,2922.26 c -47.2,0 -85.45,-38.85 -85.45,-86.76 0,-47.92 38.25,-86.77 85.45,-86.77 47.18,0 85.45,38.85 85.45,86.77 0,47.91 -38.27,86.76 -85.45,86.76"
         style="fill:#e9eaee;fill-opacity:1;fill-rule:nonzero;stroke:none"
         transform="matrix(0.13333333,0,0,-0.13333333,0,589.68)" />
      <path
         id="path35"
         d="m 1643.79,2875.07 h 726.012 v 47.1914 H 1643.79 Z"
         style="fill:#e9eaee;fill-opacity:1;fill-rule:nonzero;stroke:none"
         transform="matrix(0.13333333,0,0,-0.13333333,0,589.68)" />
      <path
         id="path36"
         d="m 1643.79,2748.73 h 726.012 v 47.1914 H 1643.79 Z"
         style="fill:#e9eaee;fill-opacity:1;fill-rule:nonzero;stroke:none"
         transform="matrix(0.13333333,0,0,-0.13333333,0,589.68)" />
      <path
         id="path37"
         d="m 2549.35,2875.2 c 10.37,-13.48 -4.45,-24.01 -4.45,-24.01 -6.85,-8.8 10.78,-25.32 10.78,-25.32 0,0 17.3,-16.86 25.54,-9.4 0,0 9.46,15.67 23.33,5.97 13.87,-9.7 12.44,-22.84 -0.09,-33.31 0,0 -17.79,-14.04 -59.56,25.88 -41.22,41.54 -28.3,58.08 -28.3,58.08 9.54,13.34 22.38,15.57 32.75,2.11"
         style="fill:#e41a76;fill-opacity:1;fill-rule:nonzero;stroke:none"
         transform="matrix(0.13333333,0,0,-0.13333333,0,589.68)" />
      <path
         id="path38"
         d="m 2777.96,2794.65 h -6.58 l 4.65,4.65 c 2.51,2.5 4.08,5.76 4.5,9.3 -10.74,7.04 -16.08,17.25 -16.08,27.95 0,19.74 18.14,39.8 46.55,39.8 30.1,0 46.24,-18.46 46.24,-38.07 0,-19.74 -16.31,-38.19 -46.24,-38.19 -5.24,0 -10.71,0.7 -15.59,1.99 -4.63,-4.75 -10.89,-7.43 -17.45,-7.43"
         style="fill:#e41a76;fill-opacity:1;fill-rule:nonzero;stroke:none"
         transform="matrix(0.13333333,0,0,-0.13333333,0,589.68)" />
      <path
         id="path39"
         d="m 2564.55,2613.21 c 47.19,0 85.45,-38.84 85.45,-86.76 0,-47.92 -38.26,-86.77 -85.45,-86.77 -47.19,0 -85.45,38.85 -85.45,86.77 0,47.92 38.26,86.76 85.45,86.76"
         style="fill:#e9eaee;fill-opacity:1;fill-rule:nonzero;stroke:none"
         transform="matrix(0.13333333,0,0,-0.13333333,0,589.68)" />
      <path
         id="path40"
         d="m 2810.85,2613.21 c -47.2,0 -85.45,-38.84 -85.45,-86.76 0,-47.92 38.25,-86.77 85.45,-86.77 47.18,0 85.45,38.85 85.45,86.77 0,47.92 -38.27,86.76 -85.45,86.76"
         style="fill:#e9eaee;fill-opacity:1;fill-rule:nonzero;stroke:none"
         transform="matrix(0.13333333,0,0,-0.13333333,0,589.68)" />
      <path
         id="path41"
         d="m 1643.79,2566.02 h 726.012 v 47.1914 H 1643.79 Z"
         style="fill:#e9eaee;fill-opacity:1;fill-rule:nonzero;stroke:none"
         transform="matrix(0.13333333,0,0,-0.13333333,0,589.68)" />
      <path
         id="path42"
         d="m 1643.79,2439.68 h 726.012 v 47.1992 H 1643.79 Z"
         style="fill:#e9eaee;fill-opacity:1;fill-rule:nonzero;stroke:none"
         transform="matrix(0.13333333,0,0,-0.13333333,0,589.68)" />
      <path
         id="path43"
         d="m 2549.35,2566.15 c 10.37,-13.47 -4.45,-24 -4.45,-24 -6.85,-8.81 10.78,-25.32 10.78,-25.32 0,0 17.3,-16.87 25.54,-9.4 0,0 9.46,15.67 23.33,5.97 13.87,-9.7 12.44,-22.85 -0.09,-33.32 0,0 -17.79,-14.04 -59.56,25.89 -41.22,41.53 -28.3,58.08 -28.3,58.08 9.54,13.33 22.38,15.57 32.75,2.1"
         style="fill:#e41a76;fill-opacity:1;fill-rule:nonzero;stroke:none"
         transform="matrix(0.13333333,0,0,-0.13333333,0,589.68)" />
      <path
         id="path44"
         d="m 2777.96,2485.6 h -6.58 l 4.65,4.65 c 2.51,2.51 4.08,5.77 4.5,9.31 -10.74,7.04 -16.08,17.25 -16.08,27.94 0,19.74 18.14,39.8 46.55,39.8 30.1,0 46.24,-18.46 46.24,-38.07 0,-19.74 -16.31,-38.18 -46.24,-38.18 -5.24,0 -10.71,0.7 -15.59,1.98 -4.63,-4.74 -10.89,-7.43 -17.45,-7.43"
         style="fill:#e41a76;fill-opacity:1;fill-rule:nonzero;stroke:none"
         transform="matrix(0.13333333,0,0,-0.13333333,0,589.68)" />
      <path
         id="path45"
         d="m 2564.55,2304.17 c 47.19,0 85.45,-38.84 85.45,-86.76 0,-47.92 -38.26,-86.77 -85.45,-86.77 -47.19,0 -85.45,38.85 -85.45,86.77 0,47.92 38.26,86.76 85.45,86.76"
         style="fill:#e9eaee;fill-opacity:1;fill-rule:nonzero;stroke:none"
         transform="matrix(0.13333333,0,0,-0.13333333,0,589.68)" />
      <path
         id="path46"
         d="m 2810.85,2304.17 c -47.2,0 -85.45,-38.84 -85.45,-86.76 0,-47.92 38.25,-86.77 85.45,-86.77 47.18,0 85.45,38.85 85.45,86.77 0,47.92 -38.27,86.76 -85.45,86.76"
         style="fill:#e9eaee;fill-opacity:1;fill-rule:nonzero;stroke:none"
         transform="matrix(0.13333333,0,0,-0.13333333,0,589.68)" />
      <path
         id="path47"
         d="m 1643.79,2304.17 h 726.01 v -47.19 h -726.01 v 47.19"
         style="fill:#e9eaee;fill-opacity:1;fill-rule:nonzero;stroke:none"
         transform="matrix(0.13333333,0,0,-0.13333333,0,589.68)" />
      <path
         id="path48"
         d="m 1643.79,2177.84 h 726.01 v -47.2 h -726.01 v 47.2"
         style="fill:#e9eaee;fill-opacity:1;fill-rule:nonzero;stroke:none"
         transform="matrix(0.13333333,0,0,-0.13333333,0,589.68)" />
      <path
         id="path49"
         d="m 2549.35,2257.1 c 10.37,-13.46 -4.45,-24 -4.45,-24 -6.85,-8.81 10.78,-25.32 10.78,-25.32 0,0 17.3,-16.87 25.54,-9.4 0,0 9.46,15.68 23.33,5.97 13.87,-9.7 12.44,-22.84 -0.09,-33.31 0,0 -17.79,-14.04 -59.56,25.88 -41.22,41.54 -28.3,58.08 -28.3,58.08 9.54,13.33 22.38,15.57 32.75,2.1"
         style="fill:#e41a76;fill-opacity:1;fill-rule:nonzero;stroke:none"
         transform="matrix(0.13333333,0,0,-0.13333333,0,589.68)" />
      <path
         id="path50"
         d="m 2777.96,2176.56 h -6.58 l 4.65,4.65 c 2.51,2.51 4.08,5.76 4.5,9.3 -10.74,7.04 -16.08,17.25 -16.08,27.95 0,19.74 18.14,39.8 46.55,39.8 30.1,0 46.24,-18.46 46.24,-38.07 0,-19.75 -16.31,-38.18 -46.24,-38.18 -5.24,0 -10.71,0.69 -15.59,1.98 -4.63,-4.75 -10.89,-7.43 -17.45,-7.43"
         style="fill:#e41a76;fill-opacity:1;fill-rule:nonzero;stroke:none"
         transform="matrix(0.13333333,0,0,-0.13333333,0,589.68)" />
      <path
         id="path51"
         d="m 2564.55,1995.12 c 47.19,0 85.45,-38.85 85.45,-86.76 0,-47.92 -38.26,-86.76 -85.45,-86.76 -47.19,0 -85.45,38.84 -85.45,86.76 0,47.91 38.26,86.76 85.45,86.76"
         style="fill:#e9eaee;fill-opacity:1;fill-rule:nonzero;stroke:none"
         transform="matrix(0.13333333,0,0,-0.13333333,0,589.68)" />
      <path
         id="path52"
         d="m 2810.85,1995.12 c -47.2,0 -85.45,-38.85 -85.45,-86.76 0,-47.92 38.25,-86.76 85.45,-86.76 47.18,0 85.45,38.84 85.45,86.76 0,47.91 -38.27,86.76 -85.45,86.76"
         style="fill:#e9eaee;fill-opacity:1;fill-rule:nonzero;stroke:none"
         transform="matrix(0.13333333,0,0,-0.13333333,0,589.68)" />
      <path
         id="path53"
         d="m 1643.79,1995.12 h 726.01 v -47.19 h -726.01 v 47.19"
         style="fill:#e9eaee;fill-opacity:1;fill-rule:nonzero;stroke:none"
         transform="matrix(0.13333333,0,0,-0.13333333,0,589.68)" />
      <path
         id="path54"
         d="m 1643.79,1868.78 h 726.01 v -47.18 h -726.01 v 47.18"
         style="fill:#e9eaee;fill-opacity:1;fill-rule:nonzero;stroke:none"
         transform="matrix(0.13333333,0,0,-0.13333333,0,589.68)" />
      <path
         id="path55"
         d="m 2549.35,1948.06 c 10.37,-13.48 -4.45,-24 -4.45,-24 -6.85,-8.81 10.78,-25.32 10.78,-25.32 0,0 17.3,-16.87 25.54,-9.4 0,0 9.46,15.66 23.33,5.97 13.87,-9.7 12.44,-22.84 -0.09,-33.32 0,0 -17.79,-14.04 -59.56,25.89 -41.22,41.54 -28.3,58.08 -28.3,58.08 9.54,13.33 22.38,15.57 32.75,2.1"
         style="fill:#e41a76;fill-opacity:1;fill-rule:nonzero;stroke:none"
         transform="matrix(0.13333333,0,0,-0.13333333,0,589.68)" />
      <path
         id="path56"
         d="m 2777.96,1867.51 h -6.58 l 4.65,4.65 c 2.51,2.5 4.08,5.76 4.5,9.3 -10.74,7.05 -16.08,17.26 -16.08,27.95 0,19.75 18.14,39.8 46.55,39.8 30.1,0 46.24,-18.45 46.24,-38.07 0,-19.74 -16.31,-38.19 -46.24,-38.19 -5.24,0 -10.71,0.71 -15.59,2 -4.63,-4.75 -10.89,-7.44 -17.45,-7.44"
         style="fill:#e41a76;fill-opacity:1;fill-rule:nonzero;stroke:none"
         transform="matrix(0.13333333,0,0,-0.13333333,0,589.68)" />
      <path
         id="path57"
         d="m 2564.55,1686.08 c 47.19,0 85.45,-38.85 85.45,-86.77 0,-47.91 -38.26,-86.76 -85.45,-86.76 -47.19,0 -85.45,38.85 -85.45,86.76 0,47.92 38.26,86.77 85.45,86.77"
         style="fill:#e9eaee;fill-opacity:1;fill-rule:nonzero;stroke:none"
         transform="matrix(0.13333333,0,0,-0.13333333,0,589.68)" />
      <path
         id="path58"
         d="m 2810.85,1686.08 c -47.2,0 -85.45,-38.85 -85.45,-86.77 0,-47.91 38.25,-86.76 85.45,-86.76 47.18,0 85.45,38.85 85.45,86.76 0,47.92 -38.27,86.77 -85.45,86.77"
         style="fill:#e9eaee;fill-opacity:1;fill-rule:nonzero;stroke:none"
         transform="matrix(0.13333333,0,0,-0.13333333,0,589.68)" />
      <path
         id="path59"
         d="m 1643.79,1686.08 h 726.01 v -47.19 h -726.01 v 47.19"
         style="fill:#e9eaee;fill-opacity:1;fill-rule:nonzero;stroke:none"
         transform="matrix(0.13333333,0,0,-0.13333333,0,589.68)" />
      <path
         id="path60"
         d="m 1643.79,1559.74 h 726.01 v -47.19 h -726.01 v 47.19"
         style="fill:#e9eaee;fill-opacity:1;fill-rule:nonzero;stroke:none"
         transform="matrix(0.13333333,0,0,-0.13333333,0,589.68)" />
      <path
         id="path61"
         d="m 2549.35,1639.02 c 10.37,-13.48 -4.45,-24.01 -4.45,-24.01 -6.85,-8.8 10.78,-25.32 10.78,-25.32 0,0 17.3,-16.86 25.54,-9.39 0,0 9.46,15.66 23.33,5.96 13.87,-9.69 12.44,-22.85 -0.09,-33.32 0,0 -17.79,-14.03 -59.56,25.89 -41.22,41.54 -28.3,58.08 -28.3,58.08 9.54,13.33 22.38,15.58 32.75,2.11"
         style="fill:#e41a76;fill-opacity:1;fill-rule:nonzero;stroke:none"
         transform="matrix(0.13333333,0,0,-0.13333333,0,589.68)" />
      <path
         id="path62"
         d="m 2777.96,1558.46 h -6.58 l 4.65,4.66 c 2.51,2.5 4.08,5.76 4.5,9.3 -10.74,7.05 -16.08,17.25 -16.08,27.95 0,19.73 18.14,39.79 46.55,39.79 30.1,0 46.24,-18.46 46.24,-38.07 0,-19.73 -16.31,-38.18 -46.24,-38.18 -5.24,0 -10.71,0.7 -15.59,1.98 -4.63,-4.73 -10.89,-7.43 -17.45,-7.43"
         style="fill:#e41a76;fill-opacity:1;fill-rule:nonzero;stroke:none"
         transform="matrix(0.13333333,0,0,-0.13333333,0,589.68)" />
      <path
         id="path63"
         d="m 2564.55,1377.04 c 47.19,0 85.45,-38.85 85.45,-86.77 0,-47.92 -38.26,-86.76 -85.45,-86.76 -47.19,0 -85.45,38.84 -85.45,86.76 0,47.92 38.26,86.77 85.45,86.77"
         style="fill:#e9eaee;fill-opacity:1;fill-rule:nonzero;stroke:none"
         transform="matrix(0.13333333,0,0,-0.13333333,0,589.68)" />
      <path
         id="path64"
         d="m 2810.85,1377.04 c -47.2,0 -85.45,-38.85 -85.45,-86.77 0,-47.92 38.25,-86.76 85.45,-86.76 47.18,0 85.45,38.84 85.45,86.76 0,47.92 -38.27,86.77 -85.45,86.77"
         style="fill:#e9eaee;fill-opacity:1;fill-rule:nonzero;stroke:none"
         transform="matrix(0.13333333,0,0,-0.13333333,0,589.68)" />
      <path
         id="path65"
         d="m 1643.79,1377.04 h 726.01 v -47.2 h -726.01 v 47.2"
         style="fill:#e9eaee;fill-opacity:1;fill-rule:nonzero;stroke:none"
         transform="matrix(0.13333333,0,0,-0.13333333,0,589.68)" />
      <path
         id="path66"
         d="m 1643.79,1250.7 h 726.01 v -47.19 h -726.01 v 47.19"
         style="fill:#e9eaee;fill-opacity:1;fill-rule:nonzero;stroke:none"
         transform="matrix(0.13333333,0,0,-0.13333333,0,589.68)" />
      <path
         id="path67"
         d="m 2549.35,1329.97 c 10.37,-13.47 -4.45,-24 -4.45,-24 -6.85,-8.81 10.78,-25.32 10.78,-25.32 0,0 17.3,-16.87 25.54,-9.41 0,0 9.46,15.68 23.33,5.97 13.87,-9.7 12.44,-22.84 -0.09,-33.31 0,0 -17.79,-14.04 -59.56,25.89 -41.22,41.53 -28.3,58.08 -28.3,58.08 9.54,13.33 22.38,15.57 32.75,2.1"
         style="fill:#e41a76;fill-opacity:1;fill-rule:nonzero;stroke:none"
         transform="matrix(0.13333333,0,0,-0.13333333,0,589.68)" />
      <path
         id="path68"
         d="m 2777.96,1249.42 h -6.58 l 4.65,4.65 c 2.51,2.51 4.08,5.77 4.5,9.3 -10.74,7.04 -16.08,17.25 -16.08,27.95 0,19.74 18.14,39.8 46.55,39.8 30.1,0 46.24,-18.46 46.24,-38.07 0,-19.73 -16.31,-38.18 -46.24,-38.18 -5.24,0 -10.71,0.7 -15.59,1.98 -4.63,-4.74 -10.89,-7.43 -17.45,-7.43"
         style="fill:#e41a76;fill-opacity:1;fill-rule:nonzero;stroke:none"
         transform="matrix(0.13333333,0,0,-0.13333333,0,589.68)" />
      <path
         id="path69"
         d="m 3373.05,3180.66 c -47.21,0 -85.64,-38.41 -85.64,-85.64 v -162.36 c 0,-47.23 38.43,-85.65 85.64,-85.65 h 5.54 l 8.66,0.23 61.05,-0.23 h 276.56 c 47.22,0 85.63,38.42 85.63,85.65 v 162.36 c 0,47.23 -38.41,85.64 -85.63,85.64 z m -5.56,-345.85 c -51.45,2.89 -92.43,45.67 -92.43,97.85 v 162.36 c 0,54.04 43.96,98 97.99,98 h 351.81 c 54.02,0 97.98,-43.96 97.98,-98 v -162.36 c 0,-54.04 -43.96,-98 -97.98,-98 h -270.48 l -76.08,-0.05 -10.81,0.2"
         style="fill:#e41a76;fill-opacity:1;fill-rule:nonzero;stroke:none"
         transform="matrix(0.13333333,0,0,-0.13333333,0,589.68)" />
      <path
         id="path70"
         d="m 3630.65,2934.56 c -0.02,-8.19 -6.66,-14.83 -14.86,-14.86 h -117.04 c -8.2,0.03 -14.84,6.67 -14.86,14.86 v 10.7 h 11.59 c 2.74,0 4.96,2.22 4.96,4.95 0,2.74 -2.22,4.96 -4.96,4.96 h -11.59 v 32.49 h 11.59 c 2.74,0 4.96,2.22 4.96,4.95 0,2.74 -2.22,4.96 -4.96,4.96 h -11.59 v 32.49 h 11.59 c 2.74,0 4.96,2.22 4.96,4.95 0,2.74 -2.22,4.96 -4.96,4.96 h -11.59 v 32.49 h 11.59 c 2.74,0 4.96,2.22 4.96,4.95 0,2.74 -2.22,4.95 -4.96,4.95 h -11.59 v 10.71 c 0.02,8.19 6.66,14.83 14.86,14.85 h 117.04 c 8.2,-0.02 14.84,-6.66 14.86,-14.85 z m -14.86,183.27 h -117.04 c -13.67,-0.01 -24.76,-11.09 -24.77,-24.76 v -10.71 h -11.64 c -2.73,0 -4.95,-2.21 -4.95,-4.95 0,-2.73 2.22,-4.95 4.95,-4.95 h 11.59 v -32.49 h -11.59 c -2.73,0 -4.95,-2.22 -4.95,-4.96 0,-2.73 2.22,-4.95 4.95,-4.95 h 11.59 v -32.49 h -11.59 c -2.73,0 -4.95,-2.22 -4.95,-4.96 0,-2.73 2.22,-4.95 4.95,-4.95 h 11.59 v -32.49 h -11.59 c -2.73,0 -4.95,-2.22 -4.95,-4.96 0,-2.73 2.22,-4.95 4.95,-4.95 h 11.59 v -10.7 c 0.01,-13.67 11.1,-24.76 24.77,-24.77 h 117.04 c 13.68,0.01 24.77,11.1 24.77,24.77 v 158.51 c 0.02,13.66 -11.05,24.75 -24.72,24.76"
         style="fill:#e41a76;fill-opacity:1;fill-rule:nonzero;stroke:none"
         transform="matrix(0.13333333,0,0,-0.13333333,0,589.68)" />
      <path
         id="path71"
         d="m 3557.24,3053.44 c 7.81,0 14.13,-6.32 14.13,-14.12 0,-7.79 -6.32,-14.12 -14.13,-14.12 -7.79,0 -14.11,6.33 -14.11,14.12 0.01,7.79 6.32,14.1 14.11,14.12 z m 0,-38.19 c 13.28,0 24.03,10.76 24.03,24.02 0,13.27 -10.75,24.03 -24.03,24.03 -13.26,0 -24.02,-10.76 -24.02,-24.03 0.02,-13.26 10.76,-24.01 24.02,-24.02"
         style="fill:#e41a76;fill-opacity:1;fill-rule:nonzero;stroke:none"
         transform="matrix(0.13333333,0,0,-0.13333333,0,589.68)" />
      <path
         id="path72"
         d="m 3530.8,2974.19 c 2.13,13.52 12.77,23.18 26.44,23.18 13.68,0 24.38,-9.66 26.46,-23.18 z m 26.44,33.09 c -20.6,0 -36.74,-16.7 -36.74,-38.05 0,-2.73 2.21,-4.94 4.95,-4.95 h 63.6 c 2.73,0.01 4.94,2.22 4.95,4.95 0,21.35 -16.15,38.05 -36.76,38.05"
         style="fill:#e41a76;fill-opacity:1;fill-rule:nonzero;stroke:none"
         transform="matrix(0.13333333,0,0,-0.13333333,0,589.68)" />
      <path
         id="path73"
         d="m 103.199,3635.84 c -51.3943,0 -93.20291,-41.81 -93.20291,-93.2 v -173.67 c 0,-51.39 41.80861,-93.2 93.20291,-93.2 h 295.012 l 67.234,-87.33 9.551,87.33 h 4.484 c 51.399,0 93.204,41.81 93.204,93.2 v 173.67 c 0,51.39 -41.805,93.2 -93.204,93.2 z m 290.09,-370.07 h -290.09 c -56.9021,0 -103.20290625,46.3 -103.20290625,103.2 v 173.67 c 0,56.9 46.30080625,103.2 103.20290625,103.2 H 479.48 c 56.907,0 103.204,-46.3 103.204,-103.2 v -173.67 c 0,-55.4 -43.879,-100.75 -98.711,-103.11 l -11.282,-103.21 -79.402,103.12"
         style="fill:#e41a76;fill-opacity:1;fill-rule:nonzero;stroke:none"
         transform="matrix(0.13333333,0,0,-0.13333333,0,589.68)" />
      <path
         id="path74"
         d="m 381.355,3420.54 c 0,-13.59 11.016,-24.61 24.61,-24.61 13.586,0 24.609,11.02 24.609,24.61 0,13.59 -11.023,24.6 -24.609,24.6 -13.594,0 -24.61,-11.01 -24.61,-24.6"
         style="fill:#e41a76;fill-opacity:1;fill-rule:nonzero;stroke:none"
         transform="matrix(0.13333333,0,0,-0.13333333,0,589.68)" />
      <path
         id="path75"
         d="m 279.852,3420.54 c 0,-13.59 11.015,-24.61 24.597,-24.61 13.598,0 24.61,11.02 24.61,24.61 0,13.59 -11.012,24.6 -24.61,24.6 -13.582,0 -24.597,-11.01 -24.597,-24.6"
         style="fill:#e41a76;fill-opacity:1;fill-rule:nonzero;stroke:none"
         transform="matrix(0.13333333,0,0,-0.13333333,0,589.68)" />
      <path
         id="path76"
         d="m 178.34,3420.54 c 0,-13.59 11.012,-24.61 24.605,-24.61 13.594,0 24.61,11.02 24.61,24.61 0,13.59 -11.016,24.6 -24.61,24.6 -13.593,0 -24.605,-11.01 -24.605,-24.6"
         style="fill:#e41a76;fill-opacity:1;fill-rule:nonzero;stroke:none"
         transform="matrix(0.13333333,0,0,-0.13333333,0,589.68)" />
      <path
         id="path77"
         d="m 991.082,3849.59 c -0.969,-0.96 -2.109,-1.44 -3.437,-1.44 h -10.293 c -1.329,0 -2.469,0.48 -3.438,1.44 -0.957,0.96 -1.445,2.11 -1.445,3.44 v 10.29 c 0,1.33 0.488,2.47 1.445,3.44 0.969,0.96 2.109,1.44 3.438,1.44 h 10.293 c 1.328,0 2.468,-0.48 3.437,-1.44 0.969,-0.97 1.434,-2.11 1.434,-3.44 v -10.29 c 0,-1.33 -0.465,-2.48 -1.434,-3.44 z m 12.738,122.39 c 6.2,-2.95 11.08,-7.04 14.63,-12.29 3.55,-5.23 5.33,-11.05 5.33,-17.42 0,-4.82 -0.82,-9.07 -2.44,-12.74 -1.64,-3.67 -3.62,-6.81 -5.97,-9.39 -2.34,-2.6 -5.44,-5.51 -9.3,-8.77 -5.17,-4.45 -9.031,-8.42 -11.558,-11.92 -2.532,-3.49 -3.789,-7.82 -3.789,-13 v -2.53 c 0,-1.33 -0.481,-2.47 -1.45,-3.44 -0.964,-0.96 -2.105,-1.44 -3.433,-1.44 h -6.684 c -1.328,0 -2.468,0.48 -3.426,1.44 -0.968,0.97 -1.457,2.11 -1.457,3.44 v 3.79 c 0,4.81 0.852,9.06 2.54,12.74 1.679,3.67 3.703,6.77 6.046,9.3 2.344,2.52 5.508,5.6 9.485,9.21 5.054,4.34 8.826,8.16 11.286,11.47 2.47,3.32 3.71,7.25 3.71,11.84 0,5.78 -2.41,10.35 -7.22,13.72 -4.827,3.37 -10.608,5.06 -17.35,5.06 -6.504,0 -11.922,-1.62 -16.258,-4.88 -4.336,-3.25 -7.344,-8.24 -9.035,-14.99 -0.235,-1.2 -0.809,-2.16 -1.707,-2.89 -0.911,-0.73 -1.907,-1.08 -2.977,-1.08 h -7.777 c -1.082,0 -2.047,0.38 -2.887,1.17 -0.852,0.78 -1.203,1.72 -1.086,2.8 0.359,5.66 2.137,11.2 5.332,16.62 3.191,5.42 7.883,9.87 14.094,13.37 6.199,3.48 13.629,5.23 22.301,5.23 7.824,0 14.843,-1.47 21.05,-4.42"
         style="fill:#e41a76;fill-opacity:1;fill-rule:nonzero;stroke:none"
         transform="matrix(0.13333333,0,0,-0.13333333,0,589.68)" />
      <path
         id="path78"
         d="m 875.27,4011.42 c -28.075,0 -50.918,-22.84 -50.918,-50.92 v -98.88 c 0,-28.08 22.843,-50.93 50.918,-50.93 h 4.484 l 5.059,-46.32 35.671,46.32 h 169.046 c 28.08,0 50.92,22.85 50.92,50.93 v 98.88 c 0,28.08 -22.84,50.92 -50.92,50.92 z m 2.296,-272.84 -6.796,62.28 c -31.497,2.31 -56.418,28.68 -56.418,60.76 v 98.88 c 0,33.59 27.328,60.92 60.918,60.92 h 214.26 c 33.59,0 60.92,-27.33 60.92,-60.92 v -98.88 c 0,-33.6 -27.33,-60.93 -60.92,-60.93 H 925.406 l -47.84,-62.11"
         style="fill:#e41a76;fill-opacity:1;fill-rule:nonzero;stroke:none"
         transform="matrix(0.13333333,0,0,-0.13333333,0,589.68)" />
      <path
         id="path79"
         d="m 3551.39,3686.26 c -28.03,0 -50.85,-22.81 -50.85,-50.85 v -97.49 c 0,-28.04 22.82,-50.85 50.85,-50.85 h 3.83 l 5.12,-46.7 35.96,46.7 h 166.32 c 28.03,0 50.84,22.81 50.84,50.85 v 97.49 c 0,28.04 -22.81,50.85 -50.84,50.85 z m 2.75,-267.95 -6.59,60.33 c -30.97,1.99 -55.56,27.81 -55.56,59.28 v 97.49 c 0,32.75 26.65,59.4 59.4,59.4 h 211.23 c 32.75,0 59.4,-26.65 59.4,-59.4 v -97.49 c 0,-32.76 -26.65,-59.4 -59.4,-59.4 h -162.11 l -46.37,-60.21"
         style="fill:#e41a76;fill-opacity:1;fill-rule:nonzero;stroke:none"
         transform="matrix(0.13333333,0,0,-0.13333333,0,589.68)" />
      <path
         id="path80"
         d="m 3606.48,3566.86 c 0,-7.62 -6.19,-13.81 -13.82,-13.81 -7.62,0 -13.8,6.19 -13.8,13.81 0,7.63 6.18,13.82 13.8,13.82 7.63,0 13.82,-6.19 13.82,-13.82"
         style="fill:#e41a76;fill-opacity:1;fill-rule:nonzero;stroke:none"
         transform="matrix(0.13333333,0,0,-0.13333333,0,589.68)" />
      <path
         id="path81"
         d="m 3663.46,3566.86 c 0,-7.62 -6.19,-13.81 -13.81,-13.81 -7.63,0 -13.81,6.19 -13.81,13.81 0,7.63 6.18,13.82 13.81,13.82 7.62,0 13.81,-6.19 13.81,-13.82"
         style="fill:#e41a76;fill-opacity:1;fill-rule:nonzero;stroke:none"
         transform="matrix(0.13333333,0,0,-0.13333333,0,589.68)" />
      <path
         id="path82"
         d="m 3720.44,3566.86 c 0,-7.62 -6.18,-13.81 -13.81,-13.81 -7.63,0 -13.82,6.19 -13.82,13.81 0,7.63 6.19,13.82 13.82,13.82 7.63,0 13.81,-6.19 13.81,-13.82"
         style="fill:#e41a76;fill-opacity:1;fill-rule:nonzero;stroke:none"
         transform="matrix(0.13333333,0,0,-0.13333333,0,589.68)" />
      <path
         id="path83"
         d="m 1005.53,2789.31 c 158.11,-228.58 274.8,-335.81 350.06,-321.69 42.11,18.13 152.16,238.24 328.56,661.62 -22.84,27.02 -45.12,43.22 -66.82,48.6 l -291.5,-486.56 c -100.09,229.01 -155.23,349.18 -212.23,394.6 l -108.07,-296.57"
         style="fill:#f9b1bc;fill-opacity:1;fill-rule:evenodd;stroke:none"
         transform="matrix(0.13333333,0,0,-0.13333333,0,589.68)" />
      <path
         id="path84"
         d="M 440.914,817.68 C 341.305,705.691 302.398,747.531 240.516,676.219 L 376.668,460.488 C 399.07,574.25 323.621,608.43 483.941,765.82 l -43.027,51.86"
         style="fill:#f9b1bc;fill-opacity:1;fill-rule:evenodd;stroke:none"
         transform="matrix(0.13333333,0,0,-0.13333333,0,589.68)" />
      <path
         id="path85"
         d="m 302.984,721.02 c -31.226,8.839 -60.703,-4.129 -87.82,-38.321 46.563,-96.07 77.91,-222.211 231.641,-232.23 76.629,-0.59 -80.157,63.07 -58.938,168.582 -35.957,14.73 -64.246,48.91 -84.883,101.969"
         style="fill:url(#linearGradient86);fill-opacity:1;fill-rule:evenodd;stroke:none"
         transform="matrix(0.13333333,0,0,-0.13333333,0,589.68)" />
      <path
         id="path86"
         d="M 919.273,629.75 C 948.641,443.449 893.66,479.578 900.516,388.191 l 232.304,-17.492 c -62.84,93.11 -118.38,23.231 -116.09,241.461 l -97.457,17.59"
         style="fill:#f9b1bc;fill-opacity:1;fill-rule:evenodd;stroke:none"
         transform="matrix(0.13333333,0,0,-0.13333333,0,589.68)" />
      <path
         id="path87"
         d="m 898.57,455.07 c -24.656,-22.32 -30.203,-54.09 -15.8,-96.332 108.625,-15.347 217.2,-18.59 325.73,-9.699 43.14,65.383 -97.56,44.91 -175.5,121.5 -32.53,-22.758 -77.34,-27.918 -134.43,-15.469"
         style="fill:url(#linearGradient88);fill-opacity:1;fill-rule:evenodd;stroke:none"
         transform="matrix(0.13333333,0,0,-0.13333333,0,589.68)" />
      <path
         id="path88"
         d="m 873.582,2103.43 c 62.703,-211.2 94.426,-396.44 249.398,-580.24 L 387.762,847.801 c -7.215,-61.992 25.949,-115.332 108.117,-147.051 534.831,348.15 839.731,593.22 913.971,734.5 59.11,79.29 -51.89,398.6 -333.73,958.66 -208.311,-7.21 -232.811,31 -202.538,-290.48"
         style="fill:#2a2d6d;fill-opacity:1;fill-rule:evenodd;stroke:none"
         transform="matrix(0.13333333,0,0,-0.13333333,0,589.68)" />
      <path
         id="path89"
         d="M 896.648,614.25 707.066,1624.1 c -132.625,322.92 -183.074,572.31 -150.64,747.47 l 294.09,30.27 c 88.652,-205.43 140.554,-448.34 154.974,-729.45 36.03,-309.94 53.34,-657.37 51.89,-1043.722 -49.01,-29.547 -102.353,-33.879 -160.732,-14.418"
         style="fill:#2a2d6d;fill-opacity:1;fill-rule:evenodd;stroke:none"
         transform="matrix(0.13333333,0,0,-0.13333333,0,589.68)" />
      <path
         id="path90"
         d="m 1113.6,3085.88 c -132.627,75.69 -273.182,92.99 -420.948,52.62 -103.789,-234.26 -159.297,-503.12 -166.504,-808.02 199.661,-114.61 392.122,-115.33 576.642,-2.15 -66.31,211.19 -62.7,464.19 10.81,757.55"
         style="fill:#4c56af;fill-opacity:1;fill-rule:evenodd;stroke:none"
         transform="matrix(0.13333333,0,0,-0.13333333,0,589.68)" />
      <path
         id="path91"
         d="m 996.109,3250.95 -90.816,23.06 c -7.207,-58.38 -33.156,-97.31 -78.566,-115.32 56.945,-92.99 118.211,-101.64 184.523,-26.67 -36.035,35.31 -41.086,74.96 -15.141,118.93"
         style="fill:#f9b1bc;fill-opacity:1;fill-rule:evenodd;stroke:none"
         transform="matrix(0.13333333,0,0,-0.13333333,0,589.68)" />
      <path
         id="path92"
         d="m 1089.1,3431.87 -171.553,35.32 -52.617,-198.22 c 64.148,-67.76 113.164,-87.94 146.32,-60.55 41.8,50.46 67.04,124.7 77.85,223.45"
         style="fill:#f9b1bc;fill-opacity:1;fill-rule:evenodd;stroke:none"
         transform="matrix(0.13333333,0,0,-0.13333333,0,589.68)" />
      <path
         id="path93"
         d="m 1098.46,3346.09 c 18.02,20.91 23.07,37.48 28.84,64.88 2.88,12.97 3.61,20.9 0.73,33.15 -5.05,20.9 -11.54,33.16 -26.67,49.02 -18.03,20.18 -32.45,30.99 -58.39,38.92 -25.95,7.93 -43.255,6.49 -70.65,1.44 -12.968,-2.16 -18.015,-10.09 -30.984,-11.53 -9.375,-0.72 -14.426,5.76 -23.789,3.6 -14.414,-3.6 -22.344,-10.09 -31.719,-21.62 -36.035,-46.86 -40.359,-85.05 -48.293,-144.16 -3.601,-25.95 -4.324,-41.81 3.606,-67.04 4.328,-14.41 7.929,-23.06 19.461,-31.71 8.656,-7.21 15.863,-12.26 26.671,-9.37 4.325,1.44 5.762,5.04 7.93,8.65 9.363,15.86 13.692,26.67 15.86,45.41 0.71,7.93 -0.723,12.25 -2.891,19.46 -4.317,16.58 -21.621,25.23 -15.852,41.81 2.883,7.93 10.813,14.41 18.743,10.09 18.742,-7.93 12.253,-43.97 19.46,-52.62 7.207,-8.65 5.762,10.81 8.645,18.74 7.207,21.62 -5.762,43.97 12.977,57.66 30.996,21.63 65.595,10.81 95.875,-11.53 20.17,-15.14 2.88,-51.18 25.22,-59.82 10.81,-5.05 17.29,6.48 25.22,16.57"
         style="fill:#2b2a3c;fill-opacity:1;fill-rule:evenodd;stroke:none"
         transform="matrix(0.13333333,0,0,-0.13333333,0,589.68)" />
      <path
         id="path94"
         d="m 1440.62,2438.15 c -7.32,6.29 -14.43,12.92 -21.34,19.91 -12.41,12.57 -23.7,25.85 -33.85,39.68 15,20.62 33.41,51.42 55.19,92.4 v -151.99"
         style="fill:#f276ba;fill-opacity:1;fill-rule:nonzero;stroke:none"
         transform="matrix(0.13333333,0,0,-0.13333333,0,589.68)" />
      <path
         id="path95"
         d="m 1543.06,2376.85 c -36.59,14.12 -71.32,34.56 -102.44,61.3 v 151.99 c 28.41,53.42 62.57,124.19 102.44,212.28 v -425.57"
         style="fill:#9c2c78;fill-opacity:1;fill-rule:nonzero;stroke:none"
         transform="matrix(0.13333333,0,0,-0.13333333,0,589.68)" />
      <path
         id="path96"
         d="m 1670.4,2353.2 c -43.24,0 -86.46,7.88 -127.34,23.65 v 425.57 c 33.12,73.16 70.16,158.25 111.13,255.36 h 48.89 c 79.92,-7.39 157.75,-41.91 218.57,-103.49 10.11,-10.23 19.47,-20.93 28.07,-32.03 h -305.93 v -47.19 h 336.8 c 13.77,-25.27 24.22,-51.87 31.34,-79.15 h -368.14 v -47.19 h 377.1 c 5.44,-45.24 2.14,-91.32 -9.9,-135.52 h -367.2 v -47.19 h 350.68 c -12.05,-27.88 -27.86,-54.52 -47.42,-79.14 h -303.26 v -47.2 h 258.12 C 1835.64,2382 1753,2353.2 1670.4,2353.2"
         style="fill:url(#linearGradient97);fill-opacity:1;fill-rule:nonzero;stroke:none"
         transform="matrix(0.13333333,0,0,-0.13333333,0,589.68)"
         clip-path="url(#clipPath97)" />
      <path
         id="path98"
         d="m 1703.08,3057.78 h -48.89 c 0.17,0.39 0.33,0.77 0.49,1.16 5.23,0.23 10.46,0.35 15.69,0.35 10.92,0 21.83,-0.51 32.71,-1.51"
         style="fill:#e66ab0;fill-opacity:1;fill-rule:nonzero;stroke:none"
         transform="matrix(0.13333333,0,0,-0.13333333,0,589.68)" />
      <path
         id="path99"
         d="m 1980.59,2875.07 h -336.8 v 47.19 h 305.93 c 11.68,-15.07 21.97,-30.84 30.87,-47.19"
         style="fill:#e66ab0;fill-opacity:1;fill-rule:nonzero;stroke:none"
         transform="matrix(0.13333333,0,0,-0.13333333,0,589.68)" />
      <path
         id="path100"
         d="m 2020.89,2748.73 h -377.1 v 47.19 h 368.14 c 4.06,-15.54 7.05,-31.32 8.96,-47.19"
         style="fill:#e66ab0;fill-opacity:1;fill-rule:nonzero;stroke:none"
         transform="matrix(0.13333333,0,0,-0.13333333,0,589.68)" />
      <path
         id="path101"
         d="m 1994.47,2566.02 h -350.68 v 47.19 h 367.2 c -4.36,-16.02 -9.87,-31.8 -16.52,-47.19"
         style="fill:#e66ab0;fill-opacity:1;fill-rule:nonzero;stroke:none"
         transform="matrix(0.13333333,0,0,-0.13333333,0,589.68)" />
      <path
         id="path102"
         d="m 1325.83,2691.28 c -2.86,6.55 -5.68,12.98 -8.46,19.35 1.09,89.61 36.08,178.83 104.82,246.73 5.98,5.92 12.14,11.58 18.43,16.99 v -91.46 l -114.79,-191.61"
         style="fill:#f276ba;fill-opacity:1;fill-rule:nonzero;stroke:none"
         transform="matrix(0.13333333,0,0,-0.13333333,0,589.68)" />
      <path
         id="path103"
         d="m 1440.62,2882.89 v 91.46 c 27.02,23.18 56.69,41.61 87.93,55.3 l -87.93,-146.76"
         style="fill:#9c2c78;fill-opacity:1;fill-rule:nonzero;stroke:none"
         transform="matrix(0.13333333,0,0,-0.13333333,0,589.68)" />
      <path
         id="path104"
         d="m 1901.91,2439.68 h -258.12 v 47.2 h 303.26 c -8.79,-11.06 -18.33,-21.71 -28.63,-31.88 -5.38,-5.32 -10.89,-10.42 -16.51,-15.32"
         style="fill:#e66ab0;fill-opacity:1;fill-rule:nonzero;stroke:none"
         transform="matrix(0.13333333,0,0,-0.13333333,0,589.68)" />
      <path
         id="path105"
         d="m 1385.43,2497.74 c -46.32,63.17 -68.97,138.16 -68.06,212.89 2.78,-6.37 5.6,-12.8 8.46,-19.35 l 114.79,191.61 87.93,146.76 c 40.21,17.62 83.05,27.38 126.13,29.29 -0.16,-0.39 -0.32,-0.77 -0.49,-1.16 -40.97,-97.11 -78.01,-182.2 -111.13,-255.36 -39.87,-88.09 -74.03,-158.86 -102.44,-212.28 -21.78,-40.98 -40.19,-71.78 -55.19,-92.4"
         style="fill:#ef5197;fill-opacity:1;fill-rule:nonzero;stroke:none"
         transform="matrix(0.13333333,0,0,-0.13333333,0,589.68)" />
      <path
         id="path106"
         d="m 1048.64,1993.19 -98.749,99.98 424.569,419.37 98.75,-99.97 -424.57,-419.38"
         style="fill:#e41a76;fill-opacity:1;fill-rule:nonzero;stroke:none"
         transform="matrix(0.13333333,0,0,-0.13333333,0,589.68)" />
      <path
         id="path107"
         d="m 1146.37,2188.47 v 0 c -41.44,41.94 -109.03,42.36 -150.972,0.93 L 685,1882.8 c -41.945,-41.44 -42.363,-109.03 -0.93,-150.97 41.426,-41.94 109.016,-42.35 150.957,-0.93 l 310.413,306.61 c 41.94,41.43 42.35,109.02 0.93,150.96"
         style="fill:#e41a76;fill-opacity:1;fill-rule:nonzero;stroke:none"
         transform="matrix(0.13333333,0,0,-0.13333333,0,589.68)" />
      <path
         id="path108"
         d="m 1419.28,2458.06 c -137.08,138.79 -135.71,362.38 2.91,499.3 138.78,137.09 362.37,135.72 499.46,-3.07 136.92,-138.61 135.55,-362.21 -3.23,-499.3 -138.62,-136.91 -362.21,-135.54 -499.14,3.07 z m 576.61,569.56 c -177.6,179.8 -467.24,181.58 -647.03,3.98 -179.63,-177.43 -181.41,-467.07 -3.81,-646.87 177.43,-179.63 467.07,-181.4 646.7,-3.97 179.79,177.6 181.57,467.24 4.14,646.86"
         style="fill:#e41a76;fill-opacity:1;fill-rule:nonzero;stroke:none"
         transform="matrix(0.13333333,0,0,-0.13333333,0,589.68)" />
      <path
         id="path109"
         d="m 692.652,3138.5 c -101.425,-89.73 -364.218,-597.29 -290.535,-736.66 70.488,-70.99 404.168,-253.01 655.353,-400.22 l 52.92,69.7 -531.195,422.98 177.668,313.1 c 43.977,119.62 9.063,248.09 -64.211,331.1"
         style="fill:#f9b1bc;fill-opacity:1;fill-rule:evenodd;stroke:none"
         transform="matrix(0.13333333,0,0,-0.13333333,0,589.68)" />
      <path
         id="path110"
         d="m 1057.47,2001.62 c 0,0 -3.87,-20.72 20.7,-33.85 24.57,-13.13 102.29,-1.17 97.15,90.89 -3.11,55.73 -64.93,12.66 -64.93,12.66 l -52.92,-69.7"
         style="fill:#f9b1bc;fill-opacity:1;fill-rule:evenodd;stroke:none"
         transform="matrix(0.13333333,0,0,-0.13333333,0,589.68)" />
      <path
         id="path111"
         d="m 1617.33,3177.84 c 63.01,81.63 138.64,-23.91 126.33,-55.57 -12.31,-31.66 -84.62,-19.15 -126.33,16.23 -24.94,21.16 0,39.34 0,39.34"
         style="fill:#f9b1bc;fill-opacity:1;fill-rule:evenodd;stroke:none"
         transform="matrix(0.13333333,0,0,-0.13333333,0,589.68)" />
      <path
         id="path112"
         d="m 3230.32,1019.73 c 0,0 -144.03,165.99 -229.15,373.18 -85.11,207.2 -41.59,395.14 23.88,436.74 65.48,41.59 220.68,-174.85 229.15,-368.95 8.85,-194.48 0,-440.97 0,-440.97 h -23.88"
         style="fill:#e41a76;fill-opacity:1;fill-rule:nonzero;stroke:none"
         transform="matrix(0.13333333,0,0,-0.13333333,0,589.68)" />
      <path
         id="path113"
         d="m 3243.42,1019.73 c 0,0 -130.95,783.73 -67.79,1146.13 63.17,362.4 209.51,351.62 288.08,301.17 78.56,-50.45 168.29,-305.79 52.37,-753.3 -115.54,-447.51 -227.22,-694.38 -227.22,-694.38 h -45.44 v 0.38"
         style="fill:#4c56af;fill-opacity:1;fill-rule:nonzero;stroke:none"
         transform="matrix(0.13333333,0,0,-0.13333333,0,589.68)" />
      <path
         id="path114"
         d="m 3281.91,1019.25 88.96,1054.08 c 0.27,3.18 -2.09,5.97 -5.27,6.24 -3.18,0.27 -5.97,-2.09 -6.24,-5.27 l -88.97,-1054.08 c -0.26,-3.18 2.1,-5.98 5.27,-6.24 3.18,-0.27 5.98,2.09 6.25,5.27"
         style="fill:#ffffff;fill-opacity:1;fill-rule:nonzero;stroke:none"
         transform="matrix(0.13333333,0,0,-0.13333333,0,589.68)" />
      <path
         id="path115"
         d="m 3249,1021.21 -137.49,521.07 c -0.81,3.08 -3.97,4.93 -7.06,4.11 -3.08,-0.81 -4.92,-3.97 -4.11,-7.06 l 137.49,-521.07 c 0.81,-3.09 3.97,-4.93 7.06,-4.11 3.08,0.81 4.93,3.97 4.11,7.06"
         style="fill:#ffffff;fill-opacity:1;fill-rule:nonzero;stroke:none"
         transform="matrix(0.13333333,0,0,-0.13333333,0,589.68)" />
      <path
         id="path116"
         d="m 2960.73,1019.73 c -53.92,-66.242 -86.26,-150.57 -86.26,-242.628 0,-211.813 171.76,-383.961 383.97,-383.961 212.2,0 383.96,171.769 383.96,383.961 0,92.058 -32.34,176.386 -86.27,242.628 h -595.4"
         style="fill:#393752;fill-opacity:1;fill-rule:nonzero;stroke:none"
         transform="matrix(0.13333333,0,0,-0.13333333,0,589.68)" />
      <path
         id="path117"
         d="m 1731.98,718.469 c 0,-5.457 -4.42,-9.879 -9.88,-9.879 -5.46,0 -9.89,4.422 -9.89,9.879 0,5.461 4.43,9.883 9.89,9.883 5.46,0 9.88,-4.422 9.88,-9.883"
         style="fill:#e41a76;fill-opacity:1;fill-rule:nonzero;stroke:none"
         transform="matrix(0.13333333,0,0,-0.13333333,0,589.68)" />
      <path
         id="path118"
         d="m 1803.39,718.469 c 0,-5.457 -4.43,-9.879 -9.89,-9.879 -5.46,0 -9.88,4.422 -9.88,9.879 0,5.461 4.42,9.883 9.88,9.883 5.46,0 9.89,-4.422 9.89,-9.883"
         style="fill:#e41a76;fill-opacity:1;fill-rule:nonzero;stroke:none"
         transform="matrix(0.13333333,0,0,-0.13333333,0,589.68)" />
      <path
         id="path119"
         d="m 1874.79,718.469 c 0,-5.457 -4.42,-9.879 -9.88,-9.879 -5.46,0 -9.88,4.422 -9.88,9.879 0,5.461 4.42,9.883 9.88,9.883 5.46,0 9.88,-4.422 9.88,-9.883"
         style="fill:#e41a76;fill-opacity:1;fill-rule:nonzero;stroke:none"
         transform="matrix(0.13333333,0,0,-0.13333333,0,589.68)" />
      <path
         id="path120"
         d="m 1731.98,639.75 c 0,-5.449 -4.42,-9.871 -9.88,-9.871 -5.46,0 -9.89,4.422 -9.89,9.871 0,5.461 4.43,9.879 9.89,9.879 5.46,0 9.88,-4.418 9.88,-9.879"
         style="fill:#e41a76;fill-opacity:1;fill-rule:nonzero;stroke:none"
         transform="matrix(0.13333333,0,0,-0.13333333,0,589.68)" />
      <path
         id="path121"
         d="m 1803.39,639.75 c 0,-5.449 -4.43,-9.871 -9.89,-9.871 -5.46,0 -9.88,4.422 -9.88,9.871 0,5.461 4.42,9.879 9.88,9.879 5.46,0 9.89,-4.418 9.89,-9.879"
         style="fill:#e41a76;fill-opacity:1;fill-rule:nonzero;stroke:none"
         transform="matrix(0.13333333,0,0,-0.13333333,0,589.68)" />
      <path
         id="path122"
         d="m 1874.79,639.75 c 0,-5.449 -4.42,-9.871 -9.88,-9.871 -5.46,0 -9.88,4.422 -9.88,9.871 0,5.461 4.42,9.879 9.88,9.879 5.46,0 9.88,-4.418 9.88,-9.879"
         style="fill:#e41a76;fill-opacity:1;fill-rule:nonzero;stroke:none"
         transform="matrix(0.13333333,0,0,-0.13333333,0,589.68)" />
      <path
         id="path123"
         d="m 1946.2,639.75 c 0,-5.449 -4.42,-9.871 -9.88,-9.871 -5.46,0 -9.89,4.422 -9.89,9.871 0,5.461 4.43,9.879 9.89,9.879 5.46,0 9.88,-4.418 9.88,-9.879"
         style="fill:#e41a76;fill-opacity:1;fill-rule:nonzero;stroke:none"
         transform="matrix(0.13333333,0,0,-0.13333333,0,589.68)" />
      <path
         id="path124"
         d="m 2017.6,639.75 c 0,-5.449 -4.42,-9.871 -9.88,-9.871 -5.46,0 -9.88,4.422 -9.88,9.871 0,5.461 4.42,9.879 9.88,9.879 5.46,0 9.88,-4.418 9.88,-9.879"
         style="fill:#e41a76;fill-opacity:1;fill-rule:nonzero;stroke:none"
         transform="matrix(0.13333333,0,0,-0.13333333,0,589.68)" />
      <path
         id="path125"
         d="m 1874.79,561.039 c 0,-5.461 -4.42,-9.879 -9.88,-9.879 -5.46,0 -9.88,4.418 -9.88,9.879 0,5.461 4.42,9.879 9.88,9.879 5.46,0 9.88,-4.418 9.88,-9.879"
         style="fill:#e41a76;fill-opacity:1;fill-rule:nonzero;stroke:none"
         transform="matrix(0.13333333,0,0,-0.13333333,0,589.68)" />
      <path
         id="path126"
         d="m 1946.2,561.039 c 0,-5.461 -4.42,-9.879 -9.88,-9.879 -5.46,0 -9.89,4.418 -9.89,9.879 0,5.461 4.43,9.879 9.89,9.879 5.46,0 9.88,-4.418 9.88,-9.879"
         style="fill:#e41a76;fill-opacity:1;fill-rule:nonzero;stroke:none"
         transform="matrix(0.13333333,0,0,-0.13333333,0,589.68)" />
      <path
         id="path127"
         d="m 2017.6,561.039 c 0,-5.461 -4.42,-9.879 -9.88,-9.879 -5.46,0 -9.88,4.418 -9.88,9.879 0,5.461 4.42,9.879 9.88,9.879 5.46,0 9.88,-4.418 9.88,-9.879"
         style="fill:#e41a76;fill-opacity:1;fill-rule:nonzero;stroke:none"
         transform="matrix(0.13333333,0,0,-0.13333333,0,589.68)" />
      <path
         id="path128"
         d="m 344.566,1493.61 -22.937,77.92 -77.91,22.93 77.91,22.94 22.937,77.91 22.93,-77.91 77.922,-22.94 -77.922,-22.93 -22.93,-77.92"
         style="fill:#f69acd;fill-opacity:1;fill-rule:nonzero;stroke:none"
         transform="matrix(0.13333333,0,0,-0.13333333,0,589.68)" />
      <path
         id="path129"
         d="m 84.6758,1851.08 -11.1641,37.91 -37.8984,11.15 37.8984,11.16 11.1641,37.91 11.1523,-37.91 37.9099,-11.16 -37.9099,-11.15 -11.1523,-37.91"
         style="fill:#f69acd;fill-opacity:1;fill-rule:nonzero;stroke:none"
         transform="matrix(0.13333333,0,0,-0.13333333,0,589.68)" />
      <path
         id="path130"
         d="m 3315.02,3879.04 -17.77,60.36 -60.36,17.76 60.36,17.77 17.77,60.35 17.76,-60.35 60.36,-17.77 -60.36,-17.76 -17.76,-60.36"
         style="fill:#f69acd;fill-opacity:1;fill-rule:nonzero;stroke:none"
         transform="matrix(0.13333333,0,0,-0.13333333,0,589.68)" />
      <path
         id="path131"
         d="m 3601.57,4236.46 -21.16,71.9 -71.9,21.16 71.9,21.16 21.16,71.89 21.16,-71.89 71.9,-21.16 -71.9,-21.16 -21.16,-71.9"
         style="fill:#f69acd;fill-opacity:1;fill-rule:nonzero;stroke:none"
         transform="matrix(0.13333333,0,0,-0.13333333,0,589.68)" />
      <path
         id="path132"
         d="m 3918,4121.14 -10.31,34.98 -34.97,10.29 34.97,10.3 10.31,34.97 10.29,-34.97 34.97,-10.3 -34.97,-10.29 -10.29,-34.98"
         style="fill:#f69acd;fill-opacity:1;fill-rule:nonzero;stroke:none"
         transform="matrix(0.13333333,0,0,-0.13333333,0,589.68)" />
    </g>
  </g>
</svg>
