<!DOCTYPE svg PUBLIC "-//W3C//DTD SVG 1.1//EN" "http://www.w3.org/Graphics/SVG/1.1/DTD/svg11.dtd">
<!-- Uploaded to: SVG Repo, www.svgrepo.com, Transformed by: SVG Repo Mixer Tools -->
<svg fill="#2ac064" height="64px" width="64px" version="1.1" id="Capa_1" xmlns="http://www.w3.org/2000/svg" xmlns:xlink="http://www.w3.org/1999/xlink" viewBox="0 0 48.575 48.575" xml:space="preserve" data-darkreader-inline-fill="" style="--darkreader-inline-fill: var(--darkreader-background-2ac064, #229a50); --darkreader-inline-stroke: var(--darkreader-text-2ac064, #4fd884);" stroke="#2ac064" data-darkreader-inline-stroke="">
<g id="SVGRepo_bgCarrier" stroke-width="0"/>
<g id="SVGRepo_tracerCarrier" stroke-linecap="round" stroke-linejoin="round"/>
<g id="SVGRepo_iconCarrier"> <g> <path d="M1.386,45.949c4.21-2.093,18.637-15.092,21.935-18.305c0.102-0.1,0.2-0.197,0.286-0.283 c1.128-1.126,2.19-2.293,3.198-3.484c1.218-1.441,2.354-2.92,3.378-4.434c0.484-0.833,0.951-1.67,1.402-2.516 c0.002-0.003,0.003-0.006,0.005-0.009c0.451-0.846,0.886-1.7,1.308-2.568l0.151-0.312l0.003-0.001 c0.373-0.778,0.722-1.542,1.043-2.29c0.034-0.08,0.071-0.163,0.105-0.243c0.145-0.342,0.281-0.679,0.415-1.015 c0.053-0.132,0.107-0.266,0.157-0.396c0.119-0.305,0.231-0.605,0.34-0.904c0.052-0.142,0.104-0.284,0.153-0.423 c0.106-0.301,0.207-0.598,0.304-0.892c0.037-0.114,0.075-0.228,0.111-0.34c0.107-0.335,0.208-0.667,0.302-0.994 c0.014-0.05,0.029-0.101,0.043-0.15c0.221-0.784,0.406-1.544,0.552-2.277l0.104-0.522c0.267-1.502,0.334-2.705,0.27-3.586 c-2.284,0.702-8.126,3.035-13.544,5.438c-4.885,2.166-9.205,5.102-12.84,8.727l-0.074,0.075C8,16.735,5.788,19.399,3.916,22.164 C-2.131,32.539,0.364,42.325,1.386,45.949z M26.911,6.569l0.21-0.113c0.815-0.439,1.658-0.895,2.543-1.246 c0.513-0.203,1.095,0.049,1.298,0.561c0.204,0.514-0.047,1.095-0.561,1.299c-0.776,0.308-1.531,0.715-2.331,1.146L27.859,8.33 c-0.151,0.081-0.313,0.119-0.473,0.119c-0.356,0-0.701-0.19-0.881-0.525C26.243,7.438,26.424,6.831,26.911,6.569z M13.788,15.373 c2.345-2.437,4.986-4.46,7.85-6.012c0.486-0.262,1.093-0.083,1.356,0.402c0.263,0.485,0.083,1.093-0.403,1.355 c-2.683,1.454-5.16,3.353-7.361,5.641c-0.196,0.204-0.458,0.307-0.721,0.307c-0.25,0-0.5-0.093-0.693-0.279 C13.418,16.405,13.405,15.772,13.788,15.373z M4.524,32.607C4.078,34.656,3.741,38,4.391,39.023 c0.296,0.467,0.159,1.085-0.307,1.381c-0.167,0.105-0.352,0.156-0.536,0.156c-0.331,0-0.654-0.164-0.845-0.463 c-1.321-2.077-0.343-6.96-0.133-7.918c0.119-0.54,0.654-0.88,1.19-0.763C4.3,31.533,4.642,32.067,4.524,32.607z"/> <polygon points="0.441,48.143 0.442,48.145 0.442,48.143 "/> <path d="M48.575,11.642c-0.188-0.013-0.4-0.021-0.64-0.021c-0.856,0-2.164,0.098-3.956,0.492l-0.357,0.084 c-1.402,0.328-2.889,0.784-4.45,1.364c-0.016,0.006-0.034,0.013-0.05,0.019c-0.748,0.279-1.513,0.587-2.293,0.922 c-0.07,0.03-0.143,0.063-0.213,0.093c-0.68,0.295-1.374,0.616-2.077,0.953c-0.036,0.074-0.077,0.147-0.113,0.221 c-0.311,0.628-0.64,1.27-0.989,1.925c-0.086,0.162-0.17,0.326-0.258,0.488c-0.411,0.76-0.84,1.532-1.304,2.327 c-1.979,2.928-4.272,5.69-6.854,8.269c-1.645,1.646-16.226,15.09-21.972,18.537c1.853,0.508,4.987,1.253,8.881,1.253h0.001 c5.176,0,10.07-1.323,14.546-3.934c2.708-1.835,5.372-4.048,7.861-6.539l0.082-0.082c3.616-3.626,6.552-7.946,8.719-12.832 C45.539,19.768,47.87,13.931,48.575,11.642z"/> <path d="M38.4,5.159C38.2,6.058,37.933,7,37.631,7.962c-0.015,0.049-0.029,0.096-0.045,0.145c-0.152,0.479-0.317,0.966-0.493,1.46 c-0.005,0.014-0.01,0.027-0.015,0.041c-0.365,1.019-0.767,2.059-1.235,3.137c0.038-0.016,0.074-0.03,0.111-0.046 c0.526-0.226,1.035-0.437,1.528-0.632c0.134-0.053,0.266-0.102,0.4-0.154c0.39-0.15,0.77-0.292,1.14-0.424 c0.155-0.055,0.309-0.111,0.463-0.164c0.467-0.161,0.92-0.31,1.353-0.443c0.122-0.037,0.241-0.071,0.362-0.107 c0.389-0.115,0.764-0.22,1.124-0.314c0.072-0.019,0.148-0.043,0.22-0.062c0.552-2.233,2.133-5.694,2.329-6.119 c0.387-0.839,0.405-1.543,0.307-1.686c0.002-0.002-0.061-0.016-0.191-0.016c-0.238,0-0.684,0.069-1.454,0.397 c-0.664,0.283-1.307,0.584-1.919,0.869C40.416,4.407,39.347,4.907,38.4,5.159z"/> </g> </g>
</svg>